<svg version="1.1" viewBox="0.0 0.0 1920.0 1080.0" fill="none" stroke="none" stroke-linecap="square" stroke-miterlimit="10" xmlns:xlink="http://www.w3.org/1999/xlink" xmlns="http://www.w3.org/2000/svg"><clipPath id="p.0"><path d="m0 0l1920.0 0l0 1080.0l-1920.0 0l0 -1080.0z" clip-rule="nonzero"/></clipPath><g clip-path="url(#p.0)"><path fill="#000000" fill-opacity="0.0" d="m0 0l1920.0 0l0 1080.0l-1920.0 0z" fill-rule="evenodd"/><path fill="#000000" fill-opacity="0.0" d="m0 0l1920.0 0l0 1080.0009l-1920.0 0z" fill-rule="evenodd"/><g transform="matrix(1.0 0.0 0.0 1.0000007874015748 0.0 0.0)"><clipPath id="p.1"><path d="m0 0l1920.0 0l0 1080.0l-1920.0 0z" clip-rule="evenodd"/></clipPath></g><g filter="url(#shadowFilter-p.2)"><use xlink:href="#p.2" transform="matrix(1.0 0.0 0.0 1.0 0.0 4.0)"/></g><defs><filter id="shadowFilter-p.2" filterUnits="userSpaceOnUse"><feGaussianBlur in="SourceAlpha" stdDeviation="2.0" result="blur"/><feComponentTransfer in="blur" color-interpolation-filters="sRGB"><feFuncR type="linear" slope="0" intercept="0.0"/><feFuncG type="linear" slope="0" intercept="0.0"/><feFuncB type="linear" slope="0" intercept="0.0"/><feFuncA type="linear" slope="1.0" intercept="0"/></feComponentTransfer></filter></defs><g id="p.2"><path fill="#000000" fill-opacity="0.0" d="m-0.9422572 -0.9422572l1920.0 0l0 1080.0l-1920.0 0z" fill-rule="evenodd"/><path fill="#cc0000" d="m69.02649 377.96213q-8.484371 0 -14.515621 -3.40625q-6.015625 -3.40625 -9.21875 -9.375q-3.203125 -5.96875 -3.203125 -13.75q0 -8.1875 3.046875 -15.53125q3.0625 -7.359375 8.484375 -12.984375q5.4375 -5.625 12.531246 -8.828125q7.109375 -3.203125 15.109375 -3.203125q5.71875 0 9.515625 1.1875q3.796875 1.171875 7.84375 3.546875l-2.171875 18.046875l-1.671875 0l-5.625 -14.5q-1.96875 -1.875 -4.046875 -2.765625q-2.078125 -0.890625 -5.125 -0.890625q-5.828125 0 -10.46875 2.765625q-4.625 2.765625 -7.890621 7.703125q-3.25 4.921875 -5.03125 11.296875q-1.765625 6.359375 -1.765625 13.65625q0 10.359375 4.53125 16.28125q4.53125 5.921875 12.140621 5.921875q3.453125 0 6.453125 -1.125q3.015625 -1.140625 5.578125 -2.71875l9.96875 -12.734375l1.671875 0l-3.953125 16.375q-4.234375 2.375 -9.609375 3.703125q-5.375 1.328125 -12.578125 1.328125zm42.314392 -0.484375q-2.75 0 -4.046875 -1.578125q-1.28125 -1.578125 -1.28125 -3.953125q0 -2.859375 1.875 -5.03125q1.875 -2.171875 4.84375 -2.171875q2.765625 0 4.046875 1.53125q1.28125 1.53125 1.28125 4.0q0 2.75 -1.828125 4.984375q-1.828125 2.21875 -4.890625 2.21875zm63.049347 -0.5l0.296875 -1.578125l8.28125 -4.046875l11.546875 -53.859375l-8.09375 -4.046875l0.390625 -1.578125l21.3125 0l11.546875 48.34375l26.53125 -48.34375l20.03125 0l-0.296875 1.578125l-8.375 3.9375l-6.125 53.96875l6.125 4.046875l-0.296875 1.578125l-25.859375 0l0.296875 -1.578125l7.796875 -3.953125l5.53125 -46.265625l-29.015625 52.296875l-4.734375 0l-12.53125 -53.1875l-9.65625 47.15625l7.203125 3.953125l-0.296875 1.578125l-21.609375 0zm104.36804 0.984375q-4.03125 0 -6.546875 -3.34375q-2.515625 -3.359375 -2.515625 -9.671875q0 -6.8125 2.3125 -12.875q2.3125 -6.078125 6.25 -10.8125q3.953125 -4.734375 8.84375 -7.390625q4.890625 -2.671875 10.015625 -2.671875q2.5625 0 4.875 0.640625q2.328125 0.640625 4.0 1.734375l4.4375 -1.96875l2.171875 0l-5.921875 33.140625q-0.78125 4.9375 1.6875 4.9375q1.46875 0 3.25 -1.671875q1.78125 -1.6875 3.546875 -5.53125l1.578125 0.59375q-5.515625 14.890625 -14.109375 14.890625q-4.234375 0 -6.15625 -2.953125q-1.921875 -2.96875 -1.140625 -8.484375l-0.1875 0q-4.15625 5.71875 -8.0 8.578125q-3.84375 2.859375 -8.390625 2.859375zm2.375 -17.953125q0 4.9375 0.984375 7.3125q0.984375 2.359375 3.75 2.359375q2.765625 0 5.421875 -2.515625q2.671875 -2.515625 4.84375 -5.671875l4.046875 -22.796875q-1.28125 -1.578125 -2.765625 -2.40625q-1.484375 -0.84375 -3.5625 -0.84375q-3.84375 0 -6.703125 3.5q-2.859375 3.5 -4.4375 9.125q-1.578125 5.625 -1.578125 11.9375zm35.71402 40.640625q-2.765625 0 -2.765625 -2.859375l0 -6.40625l0.6875 -0.59375l5.234375 0q2.65625 0 4.234375 -0.25q1.59375 -0.25 2.765625 -1.09375q1.1875 -0.828125 2.46875 -2.65625q1.28125 -1.828125 3.359375 -5.078125l2.359375 -3.75l-10.0625 -39.453125l-7.203125 -2.96875l0 -0.984375l16.78125 -3.359375l0.296875 0l8.1875 33.34375l0.390625 0l5.921875 -9.359375q2.65625 -4.25 3.390625 -6.8125q0.75 -2.5625 0.75 -4.140625q0 -1.78125 -0.796875 -2.90625q-0.78125 -1.140625 -2.15625 -1.9375l-1.390625 -0.875l0 -0.40625l2.171875 -4.34375q0.890625 -1.578125 1.484375 -2.0625q0.59375 -0.5 1.875 -0.5q2.5625 0 4.484375 2.625q1.921875 2.609375 1.921875 5.5625q0 2.859375 -1.625 6.078125q-1.625 3.203125 -5.28125 8.921875l-19.625 30.390625q-1.484375 2.265625 -2.375 3.796875q-0.890625 1.53125 -1.921875 2.953125q-1.03125 1.4375 -2.8125 3.5q-2.46875 2.875 -5.1875 4.25q-2.703125 1.375 -5.5625 1.375zm82.074036 -22.6875q-4.03125 0 -6.546875 -3.34375q-2.515625 -3.359375 -2.515625 -9.671875q0 -6.8125 2.3125 -12.875q2.3125 -6.078125 6.25 -10.8125q3.953125 -4.734375 8.84375 -7.390625q4.890625 -2.671875 10.015625 -2.671875q2.5625 0 4.875 0.640625q2.328125 0.640625 4.0 1.734375l4.4375 -1.96875l2.171875 0l-5.921875 33.140625q-0.78125 4.9375 1.6875 4.9375q1.46875 0 3.25 -1.671875q1.78125 -1.6875 3.546875 -5.53125l1.578125 0.59375q-5.515625 14.890625 -14.109375 14.890625q-4.234375 0 -6.15625 -2.953125q-1.921875 -2.96875 -1.140625 -8.484375l-0.1875 0q-4.15625 5.71875 -8.0 8.578125q-3.84375 2.859375 -8.390625 2.859375zm2.375 -17.953125q0 4.9375 0.984375 7.3125q0.984375 2.359375 3.75 2.359375q2.765625 0 5.421875 -2.515625q2.671875 -2.515625 4.84375 -5.671875l4.046875 -22.796875q-1.28125 -1.578125 -2.765625 -2.40625q-1.484375 -0.84375 -3.5625 -0.84375q-3.84375 0 -6.703125 3.5q-2.859375 3.5 -4.4375 9.125q-1.578125 5.625 -1.578125 11.9375zm48.83954 17.953125q-4.4375 0 -6.375 -3.203125q-1.921875 -3.203125 -0.828125 -9.125l9.5625 -54.953125l-7.796875 -3.25l0 -1.09375l20.03125 -3.34375l0.296875 0l-10.84375 61.75q-0.890625 4.9375 1.578125 4.9375q1.578125 0 3.296875 -1.671875q1.734375 -1.6875 3.5 -5.53125l1.6875 0.59375q-2.875 7.296875 -6.328125 11.09375q-3.453125 3.796875 -7.78125 3.796875zm19.337585 -0.984375l6.703125 -38.078125l-6.8125 -3.359375l0 -0.984375l16.96875 -3.359375l0.296875 0l0 9.875l0.5 0q3.34375 -3.65625 5.65625 -5.828125q2.328125 -2.171875 4.59375 -3.109375q2.28125 -0.9375 5.4375 -0.9375q3.84375 0 6.359375 2.625q2.515625 2.609375 2.71875 7.25l0.59375 0q3.25 -3.65625 5.65625 -5.828125q2.421875 -2.171875 4.734375 -3.109375q2.328125 -0.9375 5.390625 -0.9375q4.828125 0 7.4375 3.953125q2.625 3.9375 1.4375 10.65625l-3.359375 18.9375q-0.875 4.9375 1.578125 4.9375q1.578125 0 3.296875 -1.671875q1.734375 -1.6875 3.515625 -5.53125l1.671875 0.59375q-2.859375 7.296875 -6.3125 11.09375q-3.453125 3.796875 -7.796875 3.796875q-4.4375 0 -6.359375 -3.203125q-1.921875 -3.203125 -0.828125 -9.125l3.453125 -19.4375q0.390625 -2.953125 -0.59375 -5.171875q-0.984375 -2.234375 -4.15625 -2.234375q-2.5625 0 -5.078125 2.125q-2.515625 2.125 -4.484375 4.5l-0.09375 0.390625l-5.4375 31.171875l-11.234375 0l5.515625 -30.78125q0.5 -2.953125 -0.4375 -5.171875q-0.9375 -2.234375 -4.203125 -2.234375q-2.65625 0 -5.171875 2.28125q-2.515625 2.265625 -4.59375 4.53125l-5.328125 31.375l-11.234375 0zm95.48651 -56.53125q-2.75 0 -4.625 -1.875q-1.875 -1.875 -1.875 -4.640625q0 -2.75 1.875 -4.625q1.875 -1.875 4.625 -1.875q2.765625 0 4.640625 1.875q1.875 1.875 1.875 4.625q0 2.765625 -1.875 4.640625q-1.875 1.875 -4.640625 1.875zm-6.703125 57.515625q-4.4375 0 -6.359375 -3.203125q-1.921875 -3.203125 -0.84375 -9.125l4.734375 -26.734375l-7.296875 -3.359375l0 -0.984375l19.53125 -3.359375l0.296875 0l-6.015625 33.546875q-0.796875 4.9375 1.671875 4.9375q1.484375 0 3.25 -1.671875q1.78125 -1.6875 3.5625 -5.53125l1.578125 0.59375q-5.53125 14.890625 -14.109375 14.890625zm38.082153 -16.28125q-4.140625 0 -7.296875 -1.375q-1.578125 0.890625 -2.328125 2.171875q-0.734375 1.28125 -0.734375 2.65625q0 2.171875 2.0625 3.265625q2.078125 1.078125 5.28125 1.71875q3.21875 0.640625 6.859375 1.28125q3.65625 0.640625 6.859375 1.921875q3.203125 1.28125 5.265625 3.65625q2.078125 2.375 2.078125 6.3125q0 4.140625 -2.765625 8.140625q-2.75 4.0 -8.1875 6.609375q-5.421875 2.609375 -13.40625 2.609375q-8.578125 0 -12.875 -2.765625q-4.296875 -2.75 -4.296875 -7.09375q0 -2.671875 0.890625 -4.453125q0.890625 -1.765625 3.0625 -4.03125l6.90625 -3.84375l0 -0.203125q-2.96875 -0.984375 -4.890625 -2.75q-1.921875 -1.78125 -1.921875 -5.234375q0 -4.4375 3.265625 -7.703125l6.40625 -3.25l0 -0.390625q-5.125 -3.65625 -5.125 -10.265625q0 -4.25 2.515625 -8.234375q2.515625 -4.0 6.90625 -6.609375q4.390625 -2.625 10.0 -2.625q3.265625 0 6.421875 0.984375l15.6875 0l0 4.34375l-8.875 0l-0.5 0.40625q2.5625 3.046875 2.5625 7.59375q0 3.9375 -2.421875 7.890625q-2.40625 3.9375 -6.90625 6.609375q-4.484375 2.65625 -10.5 2.65625zm1.484375 -3.9375q2.359375 0 4.234375 -2.0625q1.875 -2.078125 2.90625 -5.28125q1.046875 -3.21875 1.046875 -6.578125q0 -4.140625 -1.53125 -6.453125q-1.53125 -2.3125 -4.59375 -2.3125q-2.46875 0 -4.390625 1.96875q-1.921875 1.96875 -2.953125 5.125q-1.03125 3.15625 -1.03125 6.609375q0 4.046875 1.578125 6.515625q1.578125 2.46875 4.734375 2.46875zm-16.671875 31.671875q0 3.34375 2.75 5.65625q2.765625 2.328125 7.796875 2.328125q6.125 0 9.234375 -2.859375q3.109375 -2.859375 3.109375 -6.609375q0 -2.671875 -1.53125 -4.15625q-1.53125 -1.46875 -4.046875 -2.265625q-2.515625 -0.78125 -5.53125 -1.28125q-3.0 -0.484375 -5.859375 -1.078125q-3.75 2.359375 -4.84375 4.875q-1.078125 2.515625 -1.078125 5.390625zm52.485413 -12.4375l-11.15625 0l11.546875 -66.203125l-7.296875 -3.34375l0 -1.0l19.53125 -3.34375l0.296875 0l-6.609375 37.78125l0.390625 0q3.25 -3.546875 5.671875 -5.671875q2.421875 -2.125 4.734375 -3.0625q2.328125 -0.9375 5.484375 -0.9375q5.03125 0 7.734375 3.953125q2.71875 3.9375 1.53125 10.65625l-3.359375 18.9375q-0.875 4.9375 1.578125 4.9375q1.578125 0 3.296875 -1.671875q1.734375 -1.6875 3.515625 -5.53125l1.671875 0.59375q-2.75 7.296875 -6.265625 11.09375q-3.5 3.796875 -7.828125 3.796875q-4.453125 0 -6.375 -3.203125q-1.921875 -3.203125 -0.828125 -9.125l3.453125 -19.4375q0.484375 -2.953125 -0.609375 -5.171875q-1.078125 -2.234375 -4.53125 -2.234375q-2.5625 0 -5.28125 2.171875q-2.703125 2.171875 -4.78125 4.546875l-5.515625 31.46875zm53.85736 0.984375q-4.34375 0 -6.65625 -2.5625q-2.3125 -2.5625 -2.3125 -7.40625q0 -1.078125 0.140625 -2.15625q0.15625 -1.09375 0.34375 -2.28125l4.734375 -27.03125l-6.609375 0l0.203125 -1.1875l9.859375 -4.53125l8.890625 -9.171875l1.375 0l-1.78125 10.546875l12.046875 0l0 4.34375l-12.828125 0l-4.25 23.578125q-0.390625 2.765625 -0.390625 4.140625q0 4.453125 3.25 4.453125q2.28125 0 4.6875 -2.265625q2.421875 -2.28125 4.390625 -7.109375l1.78125 0.59375q-3.0625 9.078125 -7.40625 13.5625q-4.328125 4.484375 -9.46875 4.484375zm19.143555 22.6875q-2.765625 0 -2.765625 -2.859375l0 -6.40625l0.6875 -0.59375l5.234375 0q2.65625 0 4.234375 -0.25q1.59375 -0.25 2.765625 -1.09375q1.1875 -0.828125 2.46875 -2.65625q1.28125 -1.828125 3.359375 -5.078125l2.359375 -3.75l-10.0625 -39.453125l-7.203125 -2.96875l0 -0.984375l16.78125 -3.359375l0.296875 0l8.1875 33.34375l0.390625 0l5.921875 -9.359375q2.65625 -4.25 3.390625 -6.8125q0.75 -2.5625 0.75 -4.140625q0 -1.78125 -0.796875 -2.90625q-0.78125 -1.140625 -2.15625 -1.9375l-1.390625 -0.875l0 -0.40625l2.171875 -4.34375q0.890625 -1.578125 1.484375 -2.0625q0.59375 -0.5 1.875 -0.5q2.5625 0 4.484375 2.625q1.921875 2.609375 1.921875 5.5625q0 2.859375 -1.625 6.078125q-1.625 3.203125 -5.28125 8.921875l-19.625 30.390625q-1.484375 2.265625 -2.375 3.796875q-0.890625 1.53125 -1.921875 2.953125q-1.03125 1.4375 -2.8125 3.5q-2.46875 2.875 -5.1875 4.25q-2.703125 1.375 -5.5625 1.375zm100.042786 -22.6875q-8.0 0 -13.828125 -3.40625q-5.8125 -3.40625 -8.96875 -9.375q-3.15625 -5.96875 -3.15625 -13.75q0 -8.390625 3.296875 -15.734375q3.3125 -7.359375 8.984375 -12.984375q5.671875 -5.625 12.828125 -8.78125q7.15625 -3.15625 14.84375 -3.15625q4.4375 0 7.6875 0.5q3.265625 0.484375 6.03125 1.578125q2.765625 1.078125 5.71875 2.765625l-2.265625 17.0625l-1.578125 0l-5.625 -13.515625q-2.265625 -1.96875 -4.6875 -2.8125q-2.421875 -0.84375 -5.96875 -0.84375q-6.015625 0 -10.953125 2.921875q-4.9375 2.90625 -8.4375 7.9375q-3.5 5.03125 -5.375 11.453125q-1.875 6.40625 -1.875 13.3125q0 10.0625 4.734375 15.640625q4.734375 5.5625 12.234375 5.5625q1.96875 0 4.140625 -0.234375q2.171875 -0.25 4.546875 -0.84375l3.0625 -17.5625l-7.40625 -4.4375l0.296875 -1.578125l26.9375 0l-0.296875 1.578125l-7.5 4.640625l-2.765625 15.78125q-3.25 2.5625 -7.546875 4.390625q-4.296875 1.828125 -8.734375 2.859375q-4.4375 1.03125 -8.375 1.03125zm60.374817 0q-6.015625 0 -9.921875 -2.5625q-3.890625 -2.5625 -5.875 -7.046875q-1.96875 -4.5 -1.96875 -10.125q0 -4.921875 1.78125 -9.703125q1.78125 -4.796875 5.03125 -8.6875q3.25 -3.90625 7.640625 -6.265625q4.390625 -2.375 9.625 -2.375q9.375 0 13.8125 5.578125q4.4375 5.578125 4.4375 14.0625q0 4.734375 -1.734375 9.515625q-1.71875 4.78125 -4.921875 8.78125q-3.203125 4.0 -7.75 6.421875q-4.53125 2.40625 -10.15625 2.40625zm1.28125 -4.34375q3.453125 0 6.0625 -3.453125q2.609375 -3.453125 4.09375 -9.0625q1.484375 -5.625 1.484375 -12.140625q0 -6.71875 -1.578125 -10.109375q-1.578125 -3.40625 -5.625 -3.40625q-3.453125 0 -6.078125 3.203125q-2.609375 3.203125 -4.140625 8.734375q-1.515625 5.515625 -1.515625 12.328125q0 6.515625 1.578125 10.21875q1.578125 3.6875 5.71875 3.6875zm40.25305 4.34375q-4.046875 0 -6.5625 -3.34375q-2.515625 -3.359375 -2.515625 -9.671875q0 -6.8125 2.3125 -12.875q2.328125 -6.078125 6.265625 -10.8125q3.953125 -4.734375 8.875 -7.390625q4.9375 -2.671875 10.0625 -2.671875q2.171875 0 4.25 0.5l3.65625 -21.015625l-8.296875 -3.25l0 -1.09375l20.53125 -3.34375l0.28125 0l-10.84375 61.75q-0.890625 4.9375 1.578125 4.9375q1.578125 0 3.296875 -1.671875q1.734375 -1.6875 3.515625 -5.53125l1.671875 0.59375q-2.859375 7.296875 -6.3125 11.09375q-3.453125 3.796875 -7.796875 3.796875q-4.234375 0 -6.171875 -2.953125q-1.921875 -2.96875 -1.125 -8.484375l-0.296875 0q-4.34375 6.109375 -8.140625 8.78125q-3.796875 2.65625 -8.234375 2.65625zm2.46875 -17.953125q0 5.328125 1.078125 7.5q1.09375 2.171875 3.546875 2.171875q2.46875 0 5.125 -2.265625q2.671875 -2.28125 5.234375 -6.03125l4.046875 -22.59375q-2.65625 -3.34375 -6.40625 -3.34375q-3.5625 0 -6.421875 3.40625q-2.859375 3.390625 -4.53125 8.96875q-1.671875 5.578125 -1.671875 12.1875zm74.97815 16.96875l-11.15625 0l11.546875 -66.203125l-7.296875 -3.34375l0 -1.0l19.53125 -3.34375l0.296875 0l-6.609375 37.78125l0.390625 0q3.25 -3.546875 5.671875 -5.671875q2.421875 -2.125 4.734375 -3.0625q2.328125 -0.9375 5.484375 -0.9375q5.03125 0 7.734375 3.953125q2.71875 3.9375 1.53125 10.65625l-3.359375 18.9375q-0.875 4.9375 1.578125 4.9375q1.578125 0 3.296875 -1.671875q1.734375 -1.6875 3.515625 -5.53125l1.671875 0.59375q-2.75 7.296875 -6.265625 11.09375q-3.5 3.796875 -7.828125 3.796875q-4.453125 0 -6.375 -3.203125q-1.921875 -3.203125 -0.828125 -9.125l3.453125 -19.4375q0.484375 -2.953125 -0.609375 -5.171875q-1.078125 -2.234375 -4.53125 -2.234375q-2.5625 0 -5.28125 2.171875q-2.703125 2.171875 -4.78125 4.546875l-5.515625 31.46875zm52.07788 0.984375q-4.03125 0 -6.546875 -3.34375q-2.515625 -3.359375 -2.515625 -9.671875q0 -6.8125 2.3125 -12.875q2.3125 -6.078125 6.25 -10.8125q3.953125 -4.734375 8.84375 -7.390625q4.890625 -2.671875 10.015625 -2.671875q2.5625 0 4.875 0.640625q2.328125 0.640625 4.0 1.734375l4.4375 -1.96875l2.171875 0l-5.921875 33.140625q-0.78125 4.9375 1.6875 4.9375q1.46875 0 3.25 -1.671875q1.78125 -1.6875 3.546875 -5.53125l1.578125 0.59375q-5.515625 14.890625 -14.109375 14.890625q-4.234375 0 -6.15625 -2.953125q-1.921875 -2.96875 -1.140625 -8.484375l-0.1875 0q-4.15625 5.71875 -8.0 8.578125q-3.84375 2.859375 -8.390625 2.859375zm2.375 -17.953125q0 4.9375 0.984375 7.3125q0.984375 2.359375 3.75 2.359375q2.765625 0 5.421875 -2.515625q2.671875 -2.515625 4.84375 -5.671875l4.046875 -22.796875q-1.28125 -1.578125 -2.765625 -2.40625q-1.484375 -0.84375 -3.5625 -0.84375q-3.84375 0 -6.703125 3.5q-2.859375 3.5 -4.4375 9.125q-1.578125 5.625 -1.578125 11.9375zm53.376953 16.96875l-9.765625 -38.671875l-7.203125 -2.765625l0 -0.984375l17.0625 -3.359375l0.296875 0l7.890625 32.46875l0.59375 0l5.625 -8.484375q2.765625 -4.25 3.453125 -6.8125q0.6875 -2.5625 0.6875 -4.140625q0 -1.78125 -0.796875 -2.90625q-0.78125 -1.140625 -2.15625 -1.9375l-1.390625 -0.875l0 -0.40625l2.171875 -4.34375q0.890625 -1.578125 1.484375 -2.0625q0.59375 -0.5 1.875 -0.5q1.671875 0 3.15625 1.234375q1.484375 1.234375 2.359375 3.15625q0.890625 1.921875 0.890625 3.796875q0 2.859375 -1.484375 6.125q-1.46875 3.25 -5.421875 8.875l-15.984375 22.59375l-3.34375 0zm44.880493 0.984375q-7.890625 0 -11.640625 -4.484375q-3.75 -4.484375 -3.75 -12.09375q0 -5.625 1.96875 -11.0q1.984375 -5.375 5.578125 -9.703125q3.609375 -4.34375 8.484375 -6.90625q4.890625 -2.578125 10.609375 -2.578125q5.125 0 7.6875 2.328125q2.578125 2.3125 2.578125 5.46875q0 2.96875 -2.171875 5.578125q-2.171875 2.609375 -7.703125 4.9375q-5.515625 2.3125 -15.6875 4.390625q-0.09375 1.46875 -0.09375 3.046875q0 5.4375 2.65625 8.6875q2.671875 3.25 7.40625 3.25q5.828125 0 12.234375 -6.40625l0.296875 0l1.28125 1.28125q-3.359375 5.8125 -8.484375 10.015625q-5.125 4.1875 -11.25 4.1875zm8.1875 -42.90625q-4.140625 0 -7.40625 4.1875q-3.25 4.1875 -4.328125 11.09375q9.078125 -2.171875 12.46875 -4.875q3.40625 -2.71875 3.40625 -6.46875q0 -1.671875 -0.984375 -2.796875q-0.984375 -1.140625 -3.15625 -1.140625zm43.616455 41.921875l6.703125 -38.078125l-6.8125 -3.359375l0 -0.984375l16.96875 -3.359375l0.296875 0l0 9.875l0.5 0q3.34375 -3.65625 5.65625 -5.828125q2.328125 -2.171875 4.59375 -3.109375q2.28125 -0.9375 5.4375 -0.9375q3.84375 0 6.359375 2.625q2.515625 2.609375 2.71875 7.25l0.59375 0q3.25 -3.65625 5.65625 -5.828125q2.421875 -2.171875 4.734375 -3.109375q2.328125 -0.9375 5.390625 -0.9375q4.828125 0 7.4375 3.953125q2.625 3.9375 1.4375 10.65625l-3.359375 18.9375q-0.875 4.9375 1.578125 4.9375q1.578125 0 3.296875 -1.671875q1.734375 -1.6875 3.515625 -5.53125l1.671875 0.59375q-2.859375 7.296875 -6.3125 11.09375q-3.453125 3.796875 -7.796875 3.796875q-4.4375 0 -6.359375 -3.203125q-1.921875 -3.203125 -0.828125 -9.125l3.453125 -19.4375q0.390625 -2.953125 -0.59375 -5.171875q-0.984375 -2.234375 -4.15625 -2.234375q-2.5625 0 -5.078125 2.125q-2.515625 2.125 -4.484375 4.5l-0.09375 0.390625l-5.4375 31.171875l-11.234375 0l5.515625 -30.78125q0.5 -2.953125 -0.4375 -5.171875q-0.9375 -2.234375 -4.203125 -2.234375q-2.65625 0 -5.171875 2.28125q-2.515625 2.265625 -4.59375 4.53125l-5.328125 31.375l-11.234375 0zm94.20703 0.984375q-7.890625 0 -11.640625 -4.484375q-3.75 -4.484375 -3.75 -12.09375q0 -5.625 1.96875 -11.0q1.984375 -5.375 5.578125 -9.703125q3.609375 -4.34375 8.484375 -6.90625q4.890625 -2.578125 10.609375 -2.578125q5.125 0 7.6875 2.328125q2.578125 2.3125 2.578125 5.46875q0 2.96875 -2.171875 5.578125q-2.171875 2.609375 -7.703125 4.9375q-5.515625 2.3125 -15.6875 4.390625q-0.09375 1.46875 -0.09375 3.046875q0 5.4375 2.65625 8.6875q2.671875 3.25 7.40625 3.25q5.828125 0 12.234375 -6.40625l0.296875 0l1.28125 1.28125q-3.359375 5.8125 -8.484375 10.015625q-5.125 4.1875 -11.25 4.1875zm8.1875 -42.90625q-4.140625 0 -7.40625 4.1875q-3.25 4.1875 -4.328125 11.09375q9.078125 -2.171875 12.46875 -4.875q3.40625 -2.71875 3.40625 -6.46875q0 -1.671875 -0.984375 -2.796875q-0.984375 -1.140625 -3.15625 -1.140625zm19.643066 41.921875l6.703125 -38.078125l-6.8125 -3.359375l0 -0.984375l16.875 -3.359375l0.296875 0l0 10.953125l0.59375 0q3.0625 -5.03125 5.125 -7.34375q2.078125 -2.328125 3.703125 -2.96875q1.625 -0.640625 3.203125 -0.640625q2.078125 0 3.65625 1.1875q1.578125 1.1875 1.578125 2.46875q0 0.6875 -0.390625 1.578125l-3.171875 6.40625l-0.578125 0l-1.1875 -0.78125q-0.984375 -0.796875 -2.03125 -1.1875q-1.03125 -0.390625 -2.40625 -0.390625q-2.28125 0 -4.15625 1.328125q-1.859375 1.328125 -4.734375 5.96875l-5.03125 29.203125l-11.234375 0zm50.804077 0.984375q-7.796875 0 -11.703125 -4.4375q-3.890625 -4.4375 -3.890625 -12.71875q0 -5.4375 2.171875 -10.703125q2.171875 -5.28125 5.875 -9.515625q3.703125 -4.25 8.375 -6.8125q4.6875 -2.578125 9.71875 -2.578125q3.953125 0 6.609375 1.28125q2.671875 1.28125 4.15625 3.5625q0.59375 0.890625 0.734375 1.4375q0.15625 0.53125 0.15625 1.125q0 1.671875 -1.484375 2.765625l-4.046875 2.859375l-0.59375 0l-2.078125 -3.5625q-1.671875 -2.75 -3.0 -3.9375q-1.328125 -1.1875 -3.90625 -1.1875q-2.859375 0 -5.53125 2.921875q-2.65625 2.90625 -4.328125 7.59375q-1.671875 4.671875 -1.671875 10.109375q0 6.015625 2.609375 9.375q2.609375 3.34375 7.25 3.34375q2.765625 0 5.71875 -1.375q2.96875 -1.390625 7.015625 -6.015625l0.1875 0l1.390625 1.171875q-3.859375 6.71875 -8.75 11.015625q-4.875 4.28125 -10.984375 4.28125zm23.873413 22.6875q-2.765625 0 -2.765625 -2.859375l0 -6.40625l0.6875 -0.59375l5.234375 0q2.65625 0 4.234375 -0.25q1.59375 -0.25 2.765625 -1.09375q1.1875 -0.828125 2.46875 -2.65625q1.28125 -1.828125 3.359375 -5.078125l2.359375 -3.75l-10.0625 -39.453125l-7.203125 -2.96875l0 -0.984375l16.78125 -3.359375l0.296875 0l8.1875 33.34375l0.390625 0l5.921875 -9.359375q2.65625 -4.25 3.390625 -6.8125q0.75 -2.5625 0.75 -4.140625q0 -1.78125 -0.796875 -2.90625q-0.78125 -1.140625 -2.15625 -1.9375l-1.390625 -0.875l0 -0.40625l2.171875 -4.34375q0.890625 -1.578125 1.484375 -2.0625q0.59375 -0.5 1.875 -0.5q2.5625 0 4.484375 2.625q1.921875 2.609375 1.921875 5.5625q0 2.859375 -1.625 6.078125q-1.625 3.203125 -5.28125 8.921875l-19.625 30.390625q-1.484375 2.265625 -2.375 3.796875q-0.890625 1.53125 -1.921875 2.953125q-1.03125 1.4375 -2.8125 3.5q-2.46875 2.875 -5.1875 4.25q-2.703125 1.375 -5.5625 1.375zm90.667725 -22.6875q-6.015625 0 -9.921875 -2.5625q-3.890625 -2.5625 -5.875 -7.046875q-1.96875 -4.5 -1.96875 -10.125q0 -4.921875 1.78125 -9.703125q1.78125 -4.796875 5.03125 -8.6875q3.25 -3.90625 7.640625 -6.265625q4.390625 -2.375 9.625 -2.375q9.375 0 13.8125 5.578125q4.4375 5.578125 4.4375 14.0625q0 4.734375 -1.734375 9.515625q-1.71875 4.78125 -4.921875 8.78125q-3.203125 4.0 -7.75 6.421875q-4.53125 2.40625 -10.15625 2.40625zm1.28125 -4.34375q3.453125 0 6.0625 -3.453125q2.609375 -3.453125 4.09375 -9.0625q1.484375 -5.625 1.484375 -12.140625q0 -6.71875 -1.578125 -10.109375q-1.578125 -3.40625 -5.625 -3.40625q-3.453125 0 -6.078125 3.203125q-2.609375 3.203125 -4.140625 8.734375q-1.515625 5.515625 -1.515625 12.328125q0 6.515625 1.578125 10.21875q1.578125 3.6875 5.71875 3.6875zm30.882935 3.359375l6.703125 -38.078125l-6.8125 -3.359375l0 -0.984375l16.96875 -3.359375l0.296875 0l0 9.875l0.5 0q3.34375 -3.65625 5.765625 -5.828125q2.421875 -2.171875 4.828125 -3.109375q2.421875 -0.9375 5.578125 -0.9375q5.03125 0 7.75 3.953125q2.71875 3.9375 1.53125 10.65625l-3.359375 18.9375q-0.890625 4.9375 1.578125 4.9375q1.578125 0 3.296875 -1.671875q1.734375 -1.6875 3.515625 -5.53125l1.671875 0.59375q-2.765625 7.296875 -6.265625 11.09375q-3.5 3.796875 -7.84375 3.796875q-4.53125 0 -6.40625 -3.203125q-1.875 -3.203125 -0.796875 -9.125l3.359375 -19.4375q0.390625 -2.953125 -0.59375 -5.171875q-0.984375 -2.234375 -4.4375 -2.234375q-2.65625 0 -5.421875 2.28125q-2.765625 2.265625 -4.84375 4.53125l-5.328125 31.375l-11.234375 0zm90.061646 0.984375q-3.9375 0 -6.453125 -2.859375q-2.515625 -2.859375 -2.515625 -7.984375q0 -1.6875 0.296875 -3.75l4.34375 -24.46875l-6.90625 -3.359375l0 -0.984375l18.9375 -3.359375l0.296875 0l-5.234375 30.296875q-0.390625 2.359375 -0.390625 3.453125q0 2.265625 1.078125 3.84375q1.09375 1.578125 3.5625 1.578125q2.359375 0 4.875 -2.125q2.515625 -2.125 4.484375 -4.28125l4.34375 -25.0625l-5.921875 -3.359375l0 -0.984375l17.96875 -3.359375l0.390625 0l-5.921875 33.546875q-0.890625 4.9375 1.671875 4.9375q1.578125 0 3.296875 -1.671875q1.734375 -1.6875 3.515625 -5.53125l1.671875 0.59375q-2.859375 7.296875 -6.3125 11.09375q-3.453125 3.796875 -7.796875 3.796875q-3.9375 0 -5.859375 -2.515625q-1.921875 -2.515625 -1.625 -7.25l-0.203125 0q-3.15625 3.546875 -5.578125 5.671875q-2.40625 2.125 -4.734375 3.109375q-2.3125 0.984375 -5.28125 0.984375zm52.398438 0q-4.25 0 -7.0625 -1.171875q-2.8125 -1.1875 -4.296875 -2.875q-1.765625 -1.765625 -1.765625 -3.25q0 -0.59375 0.1875 -1.1875q0.203125 -0.59375 0.890625 -0.984375l3.265625 -2.265625l0.6875 0l1.671875 2.46875q1.578125 2.453125 3.796875 3.6875q2.21875 1.234375 4.78125 1.234375q3.359375 0 5.328125 -1.671875q1.984375 -1.671875 1.984375 -4.53125q0 -3.171875 -2.171875 -4.984375q-2.171875 -1.828125 -6.515625 -4.390625q-3.359375 -1.984375 -5.28125 -3.703125q-1.921875 -1.734375 -2.765625 -3.84375q-0.828125 -2.125 -0.828125 -5.1875q0 -3.25 2.5625 -6.5q2.5625 -3.265625 6.65625 -5.4375q4.09375 -2.171875 8.640625 -2.171875q3.84375 0 6.015625 1.1875q2.171875 1.1875 3.359375 2.765625q1.28125 1.671875 1.28125 3.0625q0 0.578125 -0.203125 1.125q-0.203125 0.546875 -0.6875 0.84375l-3.265625 2.265625l-0.6875 0l-2.359375 -2.953125q-1.484375 -1.875 -2.921875 -2.859375q-1.421875 -1.0 -3.6875 -1.0q-2.46875 0 -4.046875 1.4375q-1.578125 1.4375 -1.578125 3.796875q0 2.5625 1.671875 4.4375q1.671875 1.875 5.234375 3.75q4.625 2.5625 7.34375 5.28125q2.71875 2.71875 2.71875 7.9375q0 4.046875 -2.28125 7.65625q-2.265625 3.59375 -6.3125 5.8125q-4.03125 2.21875 -9.359375 2.21875zm21.504517 18.0625l0 -2.375q5.515625 -2.859375 7.734375 -5.625q2.21875 -2.765625 2.21875 -5.921875q0 -4.140625 -3.453125 -6.3125l-2.75 -1.765625l-0.109375 -1.1875l3.65625 -4.640625q0.890625 -1.28125 1.421875 -1.671875q0.546875 -0.40625 1.140625 -0.40625q0.796875 0 2.171875 0.890625q2.671875 1.6875 3.890625 4.203125q1.234375 2.515625 1.234375 5.5625q0 5.140625 -4.09375 10.171875q-4.09375 5.03125 -13.0625 9.078125z" fill-rule="nonzero"/><path fill="#cc0000" d="m164.75462 519.0496q-2.46875 0 -4.046875 -0.984375q-1.578125 -0.984375 -1.578125 -2.171875q0 -0.78125 0.59375 -1.765625l2.453125 -4.34375l0.59375 0l2.46875 2.0625q1.390625 1.09375 3.453125 1.09375q3.15625 0 4.9375 -3.21875q1.78125 -3.203125 2.765625 -9.8125l6.90625 -44.984375l-7.3125 0l0 -4.34375l7.90625 0l0.578125 -3.546875q0.40625 -2.46875 2.125 -5.765625q1.734375 -3.3125 4.484375 -6.765625q2.765625 -3.453125 6.0625 -6.453125q3.3125 -3.015625 6.90625 -4.828125q3.609375 -1.828125 6.96875 -1.828125q1.28125 0 2.40625 0.25q1.140625 0.234375 1.9375 0.53125q2.359375 1.1875 2.359375 2.65625q0 0.796875 -0.6875 1.984375l-2.953125 5.03125l-0.703125 0l-2.15625 -1.578125q-2.875 -2.078125 -5.625 -2.078125q-6.90625 0 -9.078125 13.625l-1.390625 8.765625l10.359375 0l0 4.34375l-11.046875 0l-6.109375 39.375q-0.40625 2.359375 -1.984375 5.515625q-1.578125 3.15625 -4.0 6.515625q-2.40625 3.359375 -5.328125 6.265625q-2.90625 2.90625 -6.0625 4.671875q-3.15625 1.78125 -6.203125 1.78125zm59.191742 -22.6875q-6.015625 0 -9.921875 -2.5625q-3.890625 -2.5625 -5.875 -7.046875q-1.96875 -4.5 -1.96875 -10.125q0 -4.921875 1.78125 -9.703125q1.78125 -4.796875 5.03125 -8.6875q3.25 -3.90625 7.640625 -6.265625q4.390625 -2.375 9.625 -2.375q9.375 0 13.8125 5.578125q4.4375 5.578125 4.4375 14.0625q0 4.734375 -1.734375 9.515625q-1.71875 4.78125 -4.921875 8.78125q-3.203125 4.0 -7.75 6.421875q-4.53125 2.40625 -10.15625 2.40625zm1.28125 -4.34375q3.453125 0 6.0625 -3.453125q2.609375 -3.453125 4.09375 -9.0625q1.484375 -5.625 1.484375 -12.140625q0 -6.71875 -1.578125 -10.109375q-1.578125 -3.40625 -5.625 -3.40625q-3.453125 0 -6.078125 3.203125q-2.609375 3.203125 -4.140625 8.734375q-1.515625 5.515625 -1.515625 12.328125q0 6.515625 1.578125 10.21875q1.578125 3.6875 5.71875 3.6875zm30.88298 3.359375l6.703125 -38.078125l-6.8125 -3.359375l0 -0.984375l16.875 -3.359375l0.296875 0l0 10.953125l0.59375 0q3.0625 -5.03125 5.125 -7.34375q2.078125 -2.328125 3.703125 -2.96875q1.625 -0.640625 3.203125 -0.640625q2.078125 0 3.65625 1.1875q1.578125 1.1875 1.578125 2.46875q0 0.6875 -0.390625 1.578125l-3.171875 6.40625l-0.578125 0l-1.1875 -0.78125q-0.984375 -0.796875 -2.03125 -1.1875q-1.03125 -0.390625 -2.40625 -0.390625q-2.28125 0 -4.15625 1.328125q-1.859375 1.328125 -4.734375 5.96875l-5.03125 29.203125l-11.234375 0zm53.958496 -15.296875q-4.140625 0 -7.296875 -1.375q-1.578125 0.890625 -2.328125 2.171875q-0.734375 1.28125 -0.734375 2.65625q0 2.171875 2.0625 3.265625q2.078125 1.078125 5.28125 1.71875q3.21875 0.640625 6.859375 1.28125q3.65625 0.640625 6.859375 1.921875q3.203125 1.28125 5.265625 3.65625q2.078125 2.375 2.078125 6.3125q0 4.140625 -2.765625 8.140625q-2.75 4.0 -8.1875 6.609375q-5.421875 2.609375 -13.40625 2.609375q-8.578125 0 -12.875 -2.765625q-4.296875 -2.75 -4.296875 -7.09375q0 -2.671875 0.890625 -4.453125q0.890625 -1.765625 3.0625 -4.03125l6.90625 -3.84375l0 -0.203125q-2.96875 -0.984375 -4.890625 -2.75q-1.921875 -1.78125 -1.921875 -5.234375q0 -4.4375 3.265625 -7.703125l6.40625 -3.25l0 -0.390625q-5.125 -3.65625 -5.125 -10.265625q0 -4.25 2.515625 -8.234375q2.515625 -4.0 6.90625 -6.609375q4.390625 -2.625 10.0 -2.625q3.265625 0 6.421875 0.984375l15.6875 0l0 4.34375l-8.875 0l-0.5 0.40625q2.5625 3.046875 2.5625 7.59375q0 3.9375 -2.421875 7.890625q-2.40625 3.9375 -6.90625 6.609375q-4.484375 2.65625 -10.5 2.65625zm1.484375 -3.9375q2.359375 0 4.234375 -2.0625q1.875 -2.078125 2.90625 -5.28125q1.046875 -3.21875 1.046875 -6.578125q0 -4.140625 -1.53125 -6.453125q-1.53125 -2.3125 -4.59375 -2.3125q-2.46875 0 -4.390625 1.96875q-1.921875 1.96875 -2.953125 5.125q-1.03125 3.15625 -1.03125 6.609375q0 4.046875 1.578125 6.515625q1.578125 2.46875 4.734375 2.46875zm-16.671875 31.671875q0 3.34375 2.75 5.65625q2.765625 2.328125 7.796875 2.328125q6.125 0 9.234375 -2.859375q3.109375 -2.859375 3.109375 -6.609375q0 -2.671875 -1.53125 -4.15625q-1.53125 -1.46875 -4.046875 -2.265625q-2.515625 -0.78125 -5.53125 -1.28125q-3.0 -0.484375 -5.859375 -1.078125q-3.75 2.359375 -4.84375 4.875q-1.078125 2.515625 -1.078125 5.390625zm58.688538 -68.96875q-2.75 0 -4.625 -1.875q-1.875 -1.875 -1.875 -4.640625q0 -2.75 1.875 -4.625q1.875 -1.875 4.625 -1.875q2.765625 0 4.640625 1.875q1.875 1.875 1.875 4.625q0 2.765625 -1.875 4.640625q-1.875 1.875 -4.640625 1.875zm-6.703125 57.515625q-4.4375 0 -6.359375 -3.203125q-1.921875 -3.203125 -0.84375 -9.125l4.734375 -26.734375l-7.296875 -3.359375l0 -0.984375l19.53125 -3.359375l0.296875 0l-6.015625 33.546875q-0.796875 4.9375 1.671875 4.9375q1.484375 0 3.25 -1.671875q1.78125 -1.6875 3.5625 -5.53125l1.578125 0.59375q-5.53125 14.890625 -14.109375 14.890625zm34.53528 -0.984375l-9.765625 -38.671875l-7.203125 -2.765625l0 -0.984375l17.0625 -3.359375l0.296875 0l7.890625 32.46875l0.59375 0l5.625 -8.484375q2.765625 -4.25 3.453125 -6.8125q0.6875 -2.5625 0.6875 -4.140625q0 -1.78125 -0.796875 -2.90625q-0.78125 -1.140625 -2.15625 -1.9375l-1.390625 -0.875l0 -0.40625l2.171875 -4.34375q0.890625 -1.578125 1.484375 -2.0625q0.59375 -0.5 1.875 -0.5q1.671875 0 3.15625 1.234375q1.484375 1.234375 2.359375 3.15625q0.890625 1.921875 0.890625 3.796875q0 2.859375 -1.484375 6.125q-1.46875 3.25 -5.421875 8.875l-15.984375 22.59375l-3.34375 0zm44.880432 0.984375q-7.890625 0 -11.640625 -4.484375q-3.75 -4.484375 -3.75 -12.09375q0 -5.625 1.96875 -11.0q1.984375 -5.375 5.578125 -9.703125q3.609375 -4.34375 8.484375 -6.90625q4.890625 -2.578125 10.609375 -2.578125q5.125 0 7.6875 2.328125q2.578125 2.3125 2.578125 5.46875q0 2.96875 -2.171875 5.578125q-2.171875 2.609375 -7.703125 4.9375q-5.515625 2.3125 -15.6875 4.390625q-0.09375 1.46875 -0.09375 3.046875q0 5.4375 2.65625 8.6875q2.671875 3.25 7.40625 3.25q5.828125 0 12.234375 -6.40625l0.296875 0l1.28125 1.28125q-3.359375 5.8125 -8.484375 10.015625q-5.125 4.1875 -11.25 4.1875zm8.1875 -42.90625q-4.140625 0 -7.40625 4.1875q-3.25 4.1875 -4.328125 11.09375q9.078125 -2.171875 12.46875 -4.875q3.40625 -2.71875 3.40625 -6.46875q0 -1.671875 -0.984375 -2.796875q-0.984375 -1.140625 -3.15625 -1.140625zm61.569702 42.90625q-6.015625 0 -9.921875 -2.5625q-3.890625 -2.5625 -5.875 -7.046875q-1.96875 -4.5 -1.96875 -10.125q0 -4.921875 1.78125 -9.703125q1.78125 -4.796875 5.03125 -8.6875q3.25 -3.90625 7.640625 -6.265625q4.390625 -2.375 9.625 -2.375q9.375 0 13.8125 5.578125q4.4375 5.578125 4.4375 14.0625q0 4.734375 -1.734375 9.515625q-1.71875 4.78125 -4.921875 8.78125q-3.203125 4.0 -7.75 6.421875q-4.53125 2.40625 -10.15625 2.40625zm1.28125 -4.34375q3.453125 0 6.0625 -3.453125q2.609375 -3.453125 4.09375 -9.0625q1.484375 -5.625 1.484375 -12.140625q0 -6.71875 -1.578125 -10.109375q-1.578125 -3.40625 -5.625 -3.40625q-3.453125 0 -6.078125 3.203125q-2.609375 3.203125 -4.140625 8.734375q-1.515625 5.515625 -1.515625 12.328125q0 6.515625 1.578125 10.21875q1.578125 3.6875 5.71875 3.6875zm41.822205 4.34375q-3.9375 0 -6.453125 -2.859375q-2.515625 -2.859375 -2.515625 -7.984375q0 -1.6875 0.296875 -3.75l4.34375 -24.46875l-6.90625 -3.359375l0 -0.984375l18.9375 -3.359375l0.296875 0l-5.234375 30.296875q-0.390625 2.359375 -0.390625 3.453125q0 2.265625 1.078125 3.84375q1.09375 1.578125 3.5625 1.578125q2.359375 0 4.875 -2.125q2.515625 -2.125 4.484375 -4.28125l4.34375 -25.0625l-5.921875 -3.359375l0 -0.984375l17.96875 -3.359375l0.390625 0l-5.921875 33.546875q-0.890625 4.9375 1.671875 4.9375q1.578125 0 3.296875 -1.671875q1.734375 -1.6875 3.515625 -5.53125l1.671875 0.59375q-2.859375 7.296875 -6.3125 11.09375q-3.453125 3.796875 -7.796875 3.796875q-3.9375 0 -5.859375 -2.515625q-1.921875 -2.515625 -1.625 -7.25l-0.203125 0q-3.15625 3.546875 -5.578125 5.671875q-2.40625 2.125 -4.734375 3.109375q-2.3125 0.984375 -5.28125 0.984375zm42.039062 -0.984375l6.703125 -38.078125l-6.8125 -3.359375l0 -0.984375l16.875 -3.359375l0.296875 0l0 10.953125l0.59375 0q3.0625 -5.03125 5.125 -7.34375q2.078125 -2.328125 3.703125 -2.96875q1.625 -0.640625 3.203125 -0.640625q2.078125 0 3.65625 1.1875q1.578125 1.1875 1.578125 2.46875q0 0.6875 -0.390625 1.578125l-3.171875 6.40625l-0.578125 0l-1.1875 -0.78125q-0.984375 -0.796875 -2.03125 -1.1875q-1.03125 -0.390625 -2.40625 -0.390625q-2.28125 0 -4.15625 1.328125q-1.859375 1.328125 -4.734375 5.96875l-5.03125 29.203125l-11.234375 0zm70.934265 0.984375q-4.25 0 -7.0625 -1.171875q-2.8125 -1.1875 -4.296875 -2.875q-1.765625 -1.765625 -1.765625 -3.25q0 -0.59375 0.1875 -1.1875q0.203125 -0.59375 0.890625 -0.984375l3.265625 -2.265625l0.6875 0l1.671875 2.46875q1.578125 2.453125 3.796875 3.6875q2.21875 1.234375 4.78125 1.234375q3.359375 0 5.328125 -1.671875q1.984375 -1.671875 1.984375 -4.53125q0 -3.171875 -2.171875 -4.984375q-2.171875 -1.828125 -6.515625 -4.390625q-3.359375 -1.984375 -5.28125 -3.703125q-1.921875 -1.734375 -2.765625 -3.84375q-0.828125 -2.125 -0.828125 -5.1875q0 -3.25 2.5625 -6.5q2.5625 -3.265625 6.65625 -5.4375q4.09375 -2.171875 8.640625 -2.171875q3.84375 0 6.015625 1.1875q2.171875 1.1875 3.359375 2.765625q1.28125 1.671875 1.28125 3.0625q0 0.578125 -0.203125 1.125q-0.203125 0.546875 -0.6875 0.84375l-3.265625 2.265625l-0.6875 0l-2.359375 -2.953125q-1.484375 -1.875 -2.921875 -2.859375q-1.421875 -1.0 -3.6875 -1.0q-2.46875 0 -4.046875 1.4375q-1.578125 1.4375 -1.578125 3.796875q0 2.5625 1.671875 4.4375q1.671875 1.875 5.234375 3.75q4.625 2.5625 7.34375 5.28125q2.71875 2.71875 2.71875 7.9375q0 4.046875 -2.28125 7.65625q-2.265625 3.59375 -6.3125 5.8125q-4.03125 2.21875 -9.359375 2.21875zm42.705017 -57.515625q-2.75 0 -4.625 -1.875q-1.875 -1.875 -1.875 -4.640625q0 -2.75 1.875 -4.625q1.875 -1.875 4.625 -1.875q2.765625 0 4.640625 1.875q1.875 1.875 1.875 4.625q0 2.765625 -1.875 4.640625q-1.875 1.875 -4.640625 1.875zm-6.703125 57.515625q-4.4375 0 -6.359375 -3.203125q-1.921875 -3.203125 -0.84375 -9.125l4.734375 -26.734375l-7.296875 -3.359375l0 -0.984375l19.53125 -3.359375l0.296875 0l-6.015625 33.546875q-0.796875 4.9375 1.671875 4.9375q1.484375 0 3.25 -1.671875q1.78125 -1.6875 3.5625 -5.53125l1.578125 0.59375q-5.53125 14.890625 -14.109375 14.890625zm19.738403 -0.984375l6.703125 -38.078125l-6.8125 -3.359375l0 -0.984375l16.96875 -3.359375l0.296875 0l0 9.875l0.5 0q3.34375 -3.65625 5.765625 -5.828125q2.421875 -2.171875 4.828125 -3.109375q2.421875 -0.9375 5.578125 -0.9375q5.03125 0 7.75 3.953125q2.71875 3.9375 1.53125 10.65625l-3.359375 18.9375q-0.890625 4.9375 1.578125 4.9375q1.578125 0 3.296875 -1.671875q1.734375 -1.6875 3.515625 -5.53125l1.671875 0.59375q-2.765625 7.296875 -6.265625 11.09375q-3.5 3.796875 -7.84375 3.796875q-4.53125 0 -6.40625 -3.203125q-1.875 -3.203125 -0.796875 -9.125l3.359375 -19.4375q0.390625 -2.953125 -0.59375 -5.171875q-0.984375 -2.234375 -4.4375 -2.234375q-2.65625 0 -5.421875 2.28125q-2.765625 2.265625 -4.84375 4.53125l-5.328125 31.375l-11.234375 0zm64.91626 0.984375q-4.25 0 -7.0625 -1.171875q-2.8125 -1.1875 -4.296875 -2.875q-1.765625 -1.765625 -1.765625 -3.25q0 -0.59375 0.1875 -1.1875q0.203125 -0.59375 0.890625 -0.984375l3.265625 -2.265625l0.6875 0l1.671875 2.46875q1.578125 2.453125 3.796875 3.6875q2.21875 1.234375 4.78125 1.234375q3.359375 0 5.328125 -1.671875q1.984375 -1.671875 1.984375 -4.53125q0 -3.171875 -2.171875 -4.984375q-2.171875 -1.828125 -6.515625 -4.390625q-3.359375 -1.984375 -5.28125 -3.703125q-1.921875 -1.734375 -2.765625 -3.84375q-0.828125 -2.125 -0.828125 -5.1875q0 -3.25 2.5625 -6.5q2.5625 -3.265625 6.65625 -5.4375q4.09375 -2.171875 8.640625 -2.171875q3.84375 0 6.015625 1.1875q2.171875 1.1875 3.359375 2.765625q1.28125 1.671875 1.28125 3.0625q0 0.578125 -0.203125 1.125q-0.203125 0.546875 -0.6875 0.84375l-3.265625 2.265625l-0.6875 0l-2.359375 -2.953125q-1.484375 -1.875 -2.921875 -2.859375q-1.421875 -1.0 -3.6875 -1.0q-2.46875 0 -4.046875 1.4375q-1.578125 1.4375 -1.578125 3.796875q0 2.5625 1.671875 4.4375q1.671875 1.875 5.234375 3.75q4.625 2.5625 7.34375 5.28125q2.71875 2.71875 2.71875 7.9375q0 4.046875 -2.28125 7.65625q-2.265625 3.59375 -6.3125 5.8125q-4.03125 2.21875 -9.359375 2.21875zm59.772217 0q-4.03125 0 -6.546875 -3.34375q-2.515625 -3.359375 -2.515625 -9.671875q0 -6.8125 2.3125 -12.875q2.3125 -6.078125 6.25 -10.8125q3.953125 -4.734375 8.84375 -7.390625q4.890625 -2.671875 10.015625 -2.671875q2.5625 0 4.875 0.640625q2.328125 0.640625 4.0 1.734375l4.4375 -1.96875l2.171875 0l-5.921875 33.140625q-0.78125 4.9375 1.6875 4.9375q1.46875 0 3.25 -1.671875q1.78125 -1.6875 3.546875 -5.53125l1.578125 0.59375q-5.515625 14.890625 -14.109375 14.890625q-4.234375 0 -6.15625 -2.953125q-1.921875 -2.96875 -1.140625 -8.484375l-0.1875 0q-4.15625 5.71875 -8.0 8.578125q-3.84375 2.859375 -8.390625 2.859375zm2.375 -17.953125q0 4.9375 0.984375 7.3125q0.984375 2.359375 3.75 2.359375q2.765625 0 5.421875 -2.515625q2.671875 -2.515625 4.84375 -5.671875l4.046875 -22.796875q-1.28125 -1.578125 -2.765625 -2.40625q-1.484375 -0.84375 -3.5625 -0.84375q-3.84375 0 -6.703125 3.5q-2.859375 3.5 -4.4375 9.125q-1.578125 5.625 -1.578125 11.9375zm40.65204 16.96875l6.703125 -38.078125l-6.8125 -3.359375l0 -0.984375l16.96875 -3.359375l0.296875 0l0 9.875l0.5 0q3.34375 -3.65625 5.765625 -5.828125q2.421875 -2.171875 4.828125 -3.109375q2.421875 -0.9375 5.578125 -0.9375q5.03125 0 7.75 3.953125q2.71875 3.9375 1.53125 10.65625l-3.359375 18.9375q-0.890625 4.9375 1.578125 4.9375q1.578125 0 3.296875 -1.671875q1.734375 -1.6875 3.515625 -5.53125l1.671875 0.59375q-2.765625 7.296875 -6.265625 11.09375q-3.5 3.796875 -7.84375 3.796875q-4.53125 0 -6.40625 -3.203125q-1.875 -3.203125 -0.796875 -9.125l3.359375 -19.4375q0.390625 -2.953125 -0.59375 -5.171875q-0.984375 -2.234375 -4.4375 -2.234375q-2.65625 0 -5.421875 2.28125q-2.765625 2.265625 -4.84375 4.53125l-5.328125 31.375l-11.234375 0zm63.433594 0.984375q-4.046875 0 -6.5625 -3.34375q-2.515625 -3.359375 -2.515625 -9.671875q0 -6.8125 2.3125 -12.875q2.328125 -6.078125 6.265625 -10.8125q3.953125 -4.734375 8.875 -7.390625q4.9375 -2.671875 10.0625 -2.671875q2.171875 0 4.25 0.5l3.65625 -21.015625l-8.296875 -3.25l0 -1.09375l20.53125 -3.34375l0.28125 0l-10.84375 61.75q-0.890625 4.9375 1.578125 4.9375q1.578125 0 3.296875 -1.671875q1.734375 -1.6875 3.515625 -5.53125l1.671875 0.59375q-2.859375 7.296875 -6.3125 11.09375q-3.453125 3.796875 -7.796875 3.796875q-4.234375 0 -6.171875 -2.953125q-1.921875 -2.96875 -1.125 -8.484375l-0.296875 0q-4.34375 6.109375 -8.140625 8.78125q-3.796875 2.65625 -8.234375 2.65625zm2.46875 -17.953125q0 5.328125 1.078125 7.5q1.09375 2.171875 3.546875 2.171875q2.46875 0 5.125 -2.265625q2.671875 -2.28125 5.234375 -6.03125l4.046875 -22.59375q-2.65625 -3.34375 -6.40625 -3.34375q-3.5625 0 -6.421875 3.40625q-2.859375 3.390625 -4.53125 8.96875q-1.671875 5.578125 -1.671875 12.1875zm81.8844 17.953125q-3.15625 0 -5.875 -0.84375q-2.71875 -0.828125 -4.59375 -2.109375l-6.203125 2.5625l-1.0 0l11.640625 -66.890625l-7.1875 -3.25l0 -1.09375l19.421875 -3.34375l0.296875 0l-6.796875 39.25l0.484375 0q3.65625 -4.921875 7.109375 -7.984375q3.453125 -3.0625 8.484375 -3.0625q4.234375 0 6.953125 3.609375q2.71875 3.59375 2.71875 10.40625q0 6.40625 -2.03125 12.328125q-2.015625 5.921875 -5.578125 10.515625q-3.546875 4.578125 -8.140625 7.25q-4.578125 2.65625 -9.703125 2.65625zm9.171875 -38.46875q-2.375 0 -5.140625 2.21875q-2.75 2.21875 -5.3125 5.859375l-3.75 21.8125q2.65625 4.53125 6.40625 4.53125q3.453125 0 6.3125 -3.296875q2.859375 -3.3125 4.640625 -9.03125q1.78125 -5.71875 1.78125 -12.828125q0 -4.640625 -1.09375 -6.953125q-1.078125 -2.3125 -3.84375 -2.3125zm23.976685 37.484375l6.703125 -38.078125l-6.8125 -3.359375l0 -0.984375l16.875 -3.359375l0.296875 0l0 10.953125l0.59375 0q3.0625 -5.03125 5.125 -7.34375q2.078125 -2.328125 3.703125 -2.96875q1.625 -0.640625 3.203125 -0.640625q2.078125 0 3.65625 1.1875q1.578125 1.1875 1.578125 2.46875q0 0.6875 -0.390625 1.578125l-3.171875 6.40625l-0.578125 0l-1.1875 -0.78125q-0.984375 -0.796875 -2.03125 -1.1875q-1.03125 -0.390625 -2.40625 -0.390625q-2.28125 0 -4.15625 1.328125q-1.859375 1.328125 -4.734375 5.96875l-5.03125 29.203125l-11.234375 0zm52.867065 -56.53125q-2.75 0 -4.625 -1.875q-1.875 -1.875 -1.875 -4.640625q0 -2.75 1.875 -4.625q1.875 -1.875 4.625 -1.875q2.765625 0 4.640625 1.875q1.875 1.875 1.875 4.625q0 2.765625 -1.875 4.640625q-1.875 1.875 -4.640625 1.875zm-6.703125 57.515625q-4.4375 0 -6.359375 -3.203125q-1.921875 -3.203125 -0.84375 -9.125l4.734375 -26.734375l-7.296875 -3.359375l0 -0.984375l19.53125 -3.359375l0.296875 0l-6.015625 33.546875q-0.796875 4.9375 1.671875 4.9375q1.484375 0 3.25 -1.671875q1.78125 -1.6875 3.5625 -5.53125l1.578125 0.59375q-5.53125 14.890625 -14.109375 14.890625zm19.738403 -0.984375l6.703125 -38.078125l-6.8125 -3.359375l0 -0.984375l16.96875 -3.359375l0.296875 0l0 9.875l0.5 0q3.34375 -3.65625 5.765625 -5.828125q2.421875 -2.171875 4.828125 -3.109375q2.421875 -0.9375 5.578125 -0.9375q5.03125 0 7.75 3.953125q2.71875 3.9375 1.53125 10.65625l-3.359375 18.9375q-0.890625 4.9375 1.578125 4.9375q1.578125 0 3.296875 -1.671875q1.734375 -1.6875 3.515625 -5.53125l1.671875 0.59375q-2.765625 7.296875 -6.265625 11.09375q-3.5 3.796875 -7.84375 3.796875q-4.53125 0 -6.40625 -3.203125q-1.875 -3.203125 -0.796875 -9.125l3.359375 -19.4375q0.390625 -2.953125 -0.59375 -5.171875q-0.984375 -2.234375 -4.4375 -2.234375q-2.65625 0 -5.421875 2.28125q-2.765625 2.265625 -4.84375 4.53125l-5.328125 31.375l-11.234375 0zm72.30859 -15.296875q-4.140625 0 -7.296875 -1.375q-1.578125 0.890625 -2.328125 2.171875q-0.734375 1.28125 -0.734375 2.65625q0 2.171875 2.0625 3.265625q2.078125 1.078125 5.28125 1.71875q3.21875 0.640625 6.859375 1.28125q3.65625 0.640625 6.859375 1.921875q3.203125 1.28125 5.265625 3.65625q2.078125 2.375 2.078125 6.3125q0 4.140625 -2.765625 8.140625q-2.75 4.0 -8.1875 6.609375q-5.421875 2.609375 -13.40625 2.609375q-8.578125 0 -12.875 -2.765625q-4.296875 -2.75 -4.296875 -7.09375q0 -2.671875 0.890625 -4.453125q0.890625 -1.765625 3.0625 -4.03125l6.90625 -3.84375l0 -0.203125q-2.96875 -0.984375 -4.890625 -2.75q-1.921875 -1.78125 -1.921875 -5.234375q0 -4.4375 3.265625 -7.703125l6.40625 -3.25l0 -0.390625q-5.125 -3.65625 -5.125 -10.265625q0 -4.25 2.515625 -8.234375q2.515625 -4.0 6.90625 -6.609375q4.390625 -2.625 10.0 -2.625q3.265625 0 6.421875 0.984375l15.6875 0l0 4.34375l-8.875 0l-0.5 0.40625q2.5625 3.046875 2.5625 7.59375q0 3.9375 -2.421875 7.890625q-2.40625 3.9375 -6.90625 6.609375q-4.484375 2.65625 -10.5 2.65625zm1.484375 -3.9375q2.359375 0 4.234375 -2.0625q1.875 -2.078125 2.90625 -5.28125q1.046875 -3.21875 1.046875 -6.578125q0 -4.140625 -1.53125 -6.453125q-1.53125 -2.3125 -4.59375 -2.3125q-2.46875 0 -4.390625 1.96875q-1.921875 1.96875 -2.953125 5.125q-1.03125 3.15625 -1.03125 6.609375q0 4.046875 1.578125 6.515625q1.578125 2.46875 4.734375 2.46875zm-16.671875 31.671875q0 3.34375 2.75 5.65625q2.765625 2.328125 7.796875 2.328125q6.125 0 9.234375 -2.859375q3.109375 -2.859375 3.109375 -6.609375q0 -2.671875 -1.53125 -4.15625q-1.53125 -1.46875 -4.046875 -2.265625q-2.515625 -0.78125 -5.53125 -1.28125q-3.0 -0.484375 -5.859375 -1.078125q-3.75 2.359375 -4.84375 4.875q-1.078125 2.515625 -1.078125 5.390625zm77.92749 -11.453125q-3.9375 0 -6.453125 -2.859375q-2.515625 -2.859375 -2.515625 -7.984375q0 -1.6875 0.296875 -3.75l4.34375 -24.46875l-6.90625 -3.359375l0 -0.984375l18.9375 -3.359375l0.296875 0l-5.234375 30.296875q-0.390625 2.359375 -0.390625 3.453125q0 2.265625 1.078125 3.84375q1.09375 1.578125 3.5625 1.578125q2.359375 0 4.875 -2.125q2.515625 -2.125 4.484375 -4.28125l4.34375 -25.0625l-5.921875 -3.359375l0 -0.984375l17.96875 -3.359375l0.390625 0l-5.921875 33.546875q-0.890625 4.9375 1.671875 4.9375q1.578125 0 3.296875 -1.671875q1.734375 -1.6875 3.515625 -5.53125l1.671875 0.59375q-2.859375 7.296875 -6.3125 11.09375q-3.453125 3.796875 -7.796875 3.796875q-3.9375 0 -5.859375 -2.515625q-1.921875 -2.515625 -1.625 -7.25l-0.203125 0q-3.15625 3.546875 -5.578125 5.671875q-2.40625 2.125 -4.734375 3.109375q-2.3125 0.984375 -5.28125 0.984375zm52.398438 0q-4.25 0 -7.0625 -1.171875q-2.8125 -1.1875 -4.296875 -2.875q-1.765625 -1.765625 -1.765625 -3.25q0 -0.59375 0.1875 -1.1875q0.203125 -0.59375 0.890625 -0.984375l3.265625 -2.265625l0.6875 0l1.671875 2.46875q1.578125 2.453125 3.796875 3.6875q2.21875 1.234375 4.78125 1.234375q3.359375 0 5.328125 -1.671875q1.984375 -1.671875 1.984375 -4.53125q0 -3.171875 -2.171875 -4.984375q-2.171875 -1.828125 -6.515625 -4.390625q-3.359375 -1.984375 -5.28125 -3.703125q-1.921875 -1.734375 -2.765625 -3.84375q-0.828125 -2.125 -0.828125 -5.1875q0 -3.25 2.5625 -6.5q2.5625 -3.265625 6.65625 -5.4375q4.09375 -2.171875 8.640625 -2.171875q3.84375 0 6.015625 1.1875q2.171875 1.1875 3.359375 2.765625q1.28125 1.671875 1.28125 3.0625q0 0.578125 -0.203125 1.125q-0.203125 0.546875 -0.6875 0.84375l-3.265625 2.265625l-0.6875 0l-2.359375 -2.953125q-1.484375 -1.875 -2.921875 -2.859375q-1.421875 -1.0 -3.6875 -1.0q-2.46875 0 -4.046875 1.4375q-1.578125 1.4375 -1.578125 3.796875q0 2.5625 1.671875 4.4375q1.671875 1.875 5.234375 3.75q4.625 2.5625 7.34375 5.28125q2.71875 2.71875 2.71875 7.9375q0 4.046875 -2.28125 7.65625q-2.265625 3.59375 -6.3125 5.8125q-4.03125 2.21875 -9.359375 2.21875zm60.959717 0q-4.34375 0 -6.65625 -2.5625q-2.3125 -2.5625 -2.3125 -7.40625q0 -1.078125 0.140625 -2.15625q0.15625 -1.09375 0.34375 -2.28125l4.734375 -27.03125l-6.609375 0l0.203125 -1.1875l9.859375 -4.53125l8.890625 -9.171875l1.375 0l-1.78125 10.546875l12.046875 0l0 4.34375l-12.828125 0l-4.25 23.578125q-0.390625 2.765625 -0.390625 4.140625q0 4.453125 3.25 4.453125q2.28125 0 4.6875 -2.265625q2.421875 -2.28125 4.390625 -7.109375l1.78125 0.59375q-3.0625 9.078125 -7.40625 13.5625q-4.328125 4.484375 -9.46875 4.484375zm40.456055 0q-6.015625 0 -9.921875 -2.5625q-3.890625 -2.5625 -5.875 -7.046875q-1.96875 -4.5 -1.96875 -10.125q0 -4.921875 1.78125 -9.703125q1.78125 -4.796875 5.03125 -8.6875q3.25 -3.90625 7.640625 -6.265625q4.390625 -2.375 9.625 -2.375q9.375 0 13.8125 5.578125q4.4375 5.578125 4.4375 14.0625q0 4.734375 -1.734375 9.515625q-1.71875 4.78125 -4.921875 8.78125q-3.203125 4.0 -7.75 6.421875q-4.53125 2.40625 -10.15625 2.40625zm1.28125 -4.34375q3.453125 0 6.0625 -3.453125q2.609375 -3.453125 4.09375 -9.0625q1.484375 -5.625 1.484375 -12.140625q0 -6.71875 -1.578125 -10.109375q-1.578125 -3.40625 -5.625 -3.40625q-3.453125 0 -6.078125 3.203125q-2.609375 3.203125 -4.140625 8.734375q-1.515625 5.515625 -1.515625 12.328125q0 6.515625 1.578125 10.21875q1.578125 3.6875 5.71875 3.6875z" fill-rule="nonzero"/><path fill="#cc0000" d="m190.69212 614.7621q-7.890625 0 -11.640625 -4.484375q-3.75 -4.484375 -3.75 -12.09375q0 -5.625 1.96875 -11.0q1.984375 -5.375 5.578125 -9.703125q3.609375 -4.34375 8.484375 -6.90625q4.890625 -2.578125 10.609375 -2.578125q5.125 0 7.6875 2.328125q2.578125 2.3125 2.578125 5.46875q0 2.96875 -2.171875 5.578125q-2.171875 2.609375 -7.703125 4.9375q-5.515625 2.3125 -15.6875 4.390625q-0.09375 1.46875 -0.09375 3.046875q0 5.4375 2.65625 8.6875q2.671875 3.25 7.40625 3.25q5.828125 0 12.234375 -6.40625l0.296875 0l1.28125 1.28125q-3.359375 5.8125 -8.484375 10.015625q-5.125 4.1875 -11.25 4.1875zm8.1875 -42.90625q-4.140625 0 -7.40625 4.1875q-3.25 4.1875 -4.328125 11.09375q9.078125 -2.171875 12.46875 -4.875q3.40625 -2.71875 3.40625 -6.46875q0 -1.671875 -0.984375 -2.796875q-0.984375 -1.140625 -3.15625 -1.140625zm34.439972 41.921875l-9.765625 -38.671875l-7.203125 -2.765625l0 -0.984375l17.0625 -3.359375l0.296875 0l7.890625 32.46875l0.59375 0l5.625 -8.484375q2.765625 -4.25 3.453125 -6.8125q0.6875 -2.5625 0.6875 -4.140625q0 -1.78125 -0.796875 -2.90625q-0.78125 -1.140625 -2.15625 -1.9375l-1.390625 -0.875l0 -0.40625l2.171875 -4.34375q0.890625 -1.578125 1.484375 -2.0625q0.59375 -0.5 1.875 -0.5q1.671875 0 3.1562347 1.234375q1.484375 1.234375 2.359375 3.15625q0.890625 1.921875 0.890625 3.796875q0 2.859375 -1.484375 6.125q-1.46875 3.25 -5.4218597 8.875l-15.984375 22.59375l-3.34375 0zm44.880478 0.984375q-7.890625 0 -11.640625 -4.484375q-3.75 -4.484375 -3.75 -12.09375q0 -5.625 1.96875 -11.0q1.984375 -5.375 5.578125 -9.703125q3.609375 -4.34375 8.484375 -6.90625q4.890625 -2.578125 10.609375 -2.578125q5.125 0 7.6875 2.328125q2.578125 2.3125 2.578125 5.46875q0 2.96875 -2.171875 5.578125q-2.171875 2.609375 -7.703125 4.9375q-5.515625 2.3125 -15.6875 4.390625q-0.09375 1.46875 -0.09375 3.046875q0 5.4375 2.65625 8.6875q2.671875 3.25 7.40625 3.25q5.828125 0 12.234375 -6.40625l0.296875 0l1.28125 1.28125q-3.359375 5.8125 -8.484375 10.015625q-5.125 4.1875 -11.25 4.1875zm8.1875 -42.90625q-4.140625 0 -7.40625 4.1875q-3.25 4.1875 -4.328125 11.09375q9.078125 -2.171875 12.46875 -4.875q3.40625 -2.71875 3.40625 -6.46875q0 -1.671875 -0.984375 -2.796875q-0.984375 -1.140625 -3.15625 -1.140625zm19.643066 41.921875l6.703125 -38.078125l-6.8125 -3.359375l0 -0.984375l16.875 -3.359375l0.296875 0l0 10.953125l0.59375 0q3.0625 -5.03125 5.125 -7.34375q2.078125 -2.328125 3.703125 -2.96875q1.625 -0.640625 3.203125 -0.640625q2.078125 0 3.65625 1.1875q1.578125 1.1875 1.578125 2.46875q0 0.6875 -0.390625 1.578125l-3.171875 6.40625l-0.578125 0l-1.1875 -0.78125q-0.984375 -0.796875 -2.03125 -1.1875q-1.03125 -0.390625 -2.40625 -0.390625q-2.28125 0 -4.15625 1.328125q-1.859375 1.328125 -4.734375 5.96875l-5.03125 29.203125l-11.234375 0zm44.78894 0.984375q-4.4375 0 -6.375 -3.203125q-1.921875 -3.203125 -0.828125 -9.125l9.5625 -54.953125l-7.796875 -3.25l0 -1.09375l20.03125 -3.34375l0.296875 0l-10.84375 61.75q-0.890625 4.9375 1.578125 4.9375q1.578125 0 3.296875 -1.671875q1.734375 -1.6875 3.5 -5.53125l1.6875 0.59375q-2.875 7.296875 -6.328125 11.09375q-3.453125 3.796875 -7.78125 3.796875zm28.69696 0q-4.03125 0 -6.546875 -3.34375q-2.515625 -3.359375 -2.515625 -9.671875q0 -6.8125 2.3125 -12.875q2.3125 -6.078125 6.25 -10.8125q3.953125 -4.734375 8.84375 -7.390625q4.890625 -2.671875 10.015625 -2.671875q2.5625 0 4.875 0.640625q2.328125 0.640625 4.0 1.734375l4.4375 -1.96875l2.171875 0l-5.921875 33.140625q-0.78125 4.9375 1.6875 4.9375q1.46875 0 3.25 -1.671875q1.78125 -1.6875 3.546875 -5.53125l1.578125 0.59375q-5.515625 14.890625 -14.109375 14.890625q-4.234375 0 -6.15625 -2.953125q-1.921875 -2.96875 -1.140625 -8.484375l-0.1875 0q-4.15625 5.71875 -8.0 8.578125q-3.84375 2.859375 -8.390625 2.859375zm2.375 -17.953125q0 4.9375 0.984375 7.3125q0.984375 2.359375 3.75 2.359375q2.765625 0 5.421875 -2.515625q2.671875 -2.515625 4.84375 -5.671875l4.046875 -22.796875q-1.28125 -1.578125 -2.765625 -2.40625q-1.484375 -0.84375 -3.5625 -0.84375q-3.84375 0 -6.703125 3.5q-2.859375 3.5 -4.4375 9.125q-1.578125 5.625 -1.578125 11.9375zm51.011414 17.953125q-4.25 0 -7.0625 -1.171875q-2.8125 -1.1875 -4.296875 -2.875q-1.765625 -1.765625 -1.765625 -3.25q0 -0.59375 0.1875 -1.1875q0.203125 -0.59375 0.890625 -0.984375l3.265625 -2.265625l0.6875 0l1.671875 2.46875q1.578125 2.453125 3.796875 3.6875q2.21875 1.234375 4.78125 1.234375q3.359375 0 5.328125 -1.671875q1.984375 -1.671875 1.984375 -4.53125q0 -3.171875 -2.171875 -4.984375q-2.171875 -1.828125 -6.515625 -4.390625q-3.359375 -1.984375 -5.28125 -3.703125q-1.921875 -1.734375 -2.765625 -3.84375q-0.828125 -2.125 -0.828125 -5.1875q0 -3.25 2.5625 -6.5q2.5625 -3.265625 6.65625 -5.4375q4.09375 -2.171875 8.640625 -2.171875q3.84375 0 6.015625 1.1875q2.171875 1.1875 3.359375 2.765625q1.28125 1.671875 1.28125 3.0625q0 0.578125 -0.203125 1.125q-0.203125 0.546875 -0.6875 0.84375l-3.265625 2.265625l-0.6875 0l-2.359375 -2.953125q-1.484375 -1.875 -2.921875 -2.859375q-1.421875 -1.0 -3.6875 -1.0q-2.46875 0 -4.046875 1.4375q-1.578125 1.4375 -1.578125 3.796875q0 2.5625 1.671875 4.4375q1.671875 1.875 5.234375 3.75q4.625 2.5625 7.34375 5.28125q2.71875 2.71875 2.71875 7.9375q0 4.046875 -2.28125 7.65625q-2.265625 3.59375 -6.3125 5.8125q-4.03125 2.21875 -9.359375 2.21875zm36.986267 0q-4.34375 0 -6.65625 -2.5625q-2.3125 -2.5625 -2.3125 -7.40625q0 -1.078125 0.140625 -2.15625q0.15625 -1.09375 0.34375 -2.28125l4.734375 -27.03125l-6.609375 0l0.203125 -1.1875l9.859375 -4.53125l8.890625 -9.171875l1.375 0l-1.78125 10.546875l12.046875 0l0 4.34375l-12.828125 0l-4.25 23.578125q-0.390625 2.765625 -0.390625 4.140625q0 4.453125 3.25 4.453125q2.28125 0 4.6875 -2.265625q2.421875 -2.28125 4.390625 -7.109375l1.78125 0.59375q-3.0625 9.078125 -7.40625 13.5625q-4.328125 4.484375 -9.46875 4.484375zm39.360535 -57.515625q-2.75 0 -4.625 -1.875q-1.875 -1.875 -1.875 -4.640625q0 -2.75 1.875 -4.625q1.875 -1.875 4.625 -1.875q2.765625 0 4.640625 1.875q1.875 1.875 1.875 4.625q0 2.765625 -1.875 4.640625q-1.875 1.875 -4.640625 1.875zm-6.703125 57.515625q-4.4375 0 -6.359375 -3.203125q-1.921875 -3.203125 -0.84375 -9.125l4.734375 -26.734375l-7.296875 -3.359375l0 -0.984375l19.53125 -3.359375l0.296875 0l-6.015625 33.546875q-0.796875 4.9375 1.671875 4.9375q1.484375 0 3.25 -1.671875q1.78125 -1.6875 3.5625 -5.53125l1.578125 0.59375q-5.53125 14.890625 -14.109375 14.890625zm19.738403 -0.984375l6.703125 -38.078125l-6.8125 -3.359375l0 -0.984375l16.96875 -3.359375l0.296875 0l0 9.875l0.5 0q3.34375 -3.65625 5.765625 -5.828125q2.421875 -2.171875 4.828125 -3.109375q2.421875 -0.9375 5.578125 -0.9375q5.03125 0 7.75 3.953125q2.71875 3.9375 1.53125 10.65625l-3.359375 18.9375q-0.890625 4.9375 1.578125 4.9375q1.578125 0 3.296875 -1.671875q1.734375 -1.6875 3.515625 -5.53125l1.671875 0.59375q-2.765625 7.296875 -6.265625 11.09375q-3.5 3.796875 -7.84375 3.796875q-4.53125 0 -6.40625 -3.203125q-1.875 -3.203125 -0.796875 -9.125l3.359375 -19.4375q0.390625 -2.953125 -0.59375 -5.171875q-0.984375 -2.234375 -4.4375 -2.234375q-2.65625 0 -5.421875 2.28125q-2.765625 2.265625 -4.84375 4.53125l-5.328125 31.375l-11.234375 0zm72.30859 -15.296875q-4.140625 0 -7.296875 -1.375q-1.578125 0.890625 -2.328125 2.171875q-0.734375 1.28125 -0.734375 2.65625q0 2.171875 2.0625 3.265625q2.078125 1.078125 5.28125 1.71875q3.21875 0.640625 6.859375 1.28125q3.65625 0.640625 6.859375 1.921875q3.203125 1.28125 5.265625 3.65625q2.078125 2.375 2.078125 6.3125q0 4.140625 -2.765625 8.140625q-2.75 4.0 -8.1875 6.609375q-5.421875 2.609375 -13.40625 2.609375q-8.578125 0 -12.875 -2.765625q-4.296875 -2.75 -4.296875 -7.09375q0 -2.671875 0.890625 -4.453125q0.890625 -1.765625 3.0625 -4.03125l6.90625 -3.84375l0 -0.203125q-2.96875 -0.984375 -4.890625 -2.75q-1.921875 -1.78125 -1.921875 -5.234375q0 -4.4375 3.265625 -7.703125l6.40625 -3.25l0 -0.390625q-5.125 -3.65625 -5.125 -10.265625q0 -4.25 2.515625 -8.234375q2.515625 -4.0 6.90625 -6.609375q4.390625 -2.625 10.0 -2.625q3.265625 0 6.421875 0.984375l15.6875 0l0 4.34375l-8.875 0l-0.5 0.40625q2.5625 3.046875 2.5625 7.59375q0 3.9375 -2.421875 7.890625q-2.40625 3.9375 -6.90625 6.609375q-4.484375 2.65625 -10.5 2.65625zm1.484375 -3.9375q2.359375 0 4.234375 -2.0625q1.875 -2.078125 2.90625 -5.28125q1.046875 -3.21875 1.046875 -6.578125q0 -4.140625 -1.53125 -6.453125q-1.53125 -2.3125 -4.59375 -2.3125q-2.46875 0 -4.390625 1.96875q-1.921875 1.96875 -2.953125 5.125q-1.03125 3.15625 -1.03125 6.609375q0 4.046875 1.578125 6.515625q1.578125 2.46875 4.734375 2.46875zm-16.671875 31.671875q0 3.34375 2.75 5.65625q2.765625 2.328125 7.796875 2.328125q6.125 0 9.234375 -2.859375q3.109375 -2.859375 3.109375 -6.609375q0 -2.671875 -1.53125 -4.15625q-1.53125 -1.46875 -4.046875 -2.265625q-2.515625 -0.78125 -5.53125 -1.28125q-3.0 -0.484375 -5.859375 -1.078125q-3.75 2.359375 -4.84375 4.875q-1.078125 2.515625 -1.078125 5.390625zm74.58386 -11.453125q-4.4375 0 -6.375 -3.203125q-1.921875 -3.203125 -0.828125 -9.125l9.5625 -54.953125l-7.796875 -3.25l0 -1.09375l20.03125 -3.34375l0.296875 0l-10.84375 61.75q-0.890625 4.9375 1.578125 4.9375q1.578125 0 3.296875 -1.671875q1.734375 -1.6875 3.5 -5.53125l1.6875 0.59375q-2.875 7.296875 -6.328125 11.09375q-3.453125 3.796875 -7.78125 3.796875zm35.60321 -57.515625q-2.75 0 -4.625 -1.875q-1.875 -1.875 -1.875 -4.640625q0 -2.75 1.875 -4.625q1.875 -1.875 4.625 -1.875q2.765625 0 4.640625 1.875q1.875 1.875 1.875 4.625q0 2.765625 -1.875 4.640625q-1.875 1.875 -4.640625 1.875zm-6.703125 57.515625q-4.4375 0 -6.359375 -3.203125q-1.921875 -3.203125 -0.84375 -9.125l4.734375 -26.734375l-7.296875 -3.359375l0 -0.984375l19.53125 -3.359375l0.296875 0l-6.015625 33.546875q-0.796875 4.9375 1.671875 4.9375q1.484375 0 3.25 -1.671875q1.78125 -1.6875 3.5625 -5.53125l1.578125 0.59375q-5.53125 14.890625 -14.109375 14.890625zm9.379028 22.6875q-2.46875 0 -4.046875 -0.984375q-1.578125 -0.984375 -1.578125 -2.171875q0 -0.78125 0.59375 -1.765625l2.453125 -4.34375l0.59375 0l2.46875 2.0625q1.390625 1.09375 3.453125 1.09375q3.15625 0 4.9375 -3.21875q1.78125 -3.203125 2.765625 -9.8125l6.90625 -44.984375l-7.3125 0l0 -4.34375l7.90625 0l0.578125 -3.546875q0.40625 -2.46875 2.125 -5.765625q1.734375 -3.3125 4.484375 -6.765625q2.765625 -3.453125 6.0625 -6.453125q3.3125 -3.015625 6.90625 -4.828125q3.609375 -1.828125 6.96875 -1.828125q1.28125 0 2.40625 0.25q1.140625 0.234375 1.9375 0.53125q2.359375 1.1875 2.359375 2.65625q0 0.796875 -0.6875 1.984375l-2.953125 5.03125l-0.703125 0l-2.15625 -1.578125q-2.875 -2.078125 -5.625 -2.078125q-6.90625 0 -9.078125 13.625l-1.390625 8.765625l10.359375 0l0 4.34375l-11.046875 0l-6.109375 39.375q-0.40625 2.359375 -1.984375 5.515625q-1.578125 3.15625 -4.0 6.515625q-2.40625 3.359375 -5.328125 6.265625q-2.90625 2.90625 -6.0625 4.671875q-3.15625 1.78125 -6.203125 1.78125zm56.81671 -22.6875q-7.890625 0 -11.640625 -4.484375q-3.75 -4.484375 -3.75 -12.09375q0 -5.625 1.96875 -11.0q1.984375 -5.375 5.578125 -9.703125q3.609375 -4.34375 8.484375 -6.90625q4.890625 -2.578125 10.609375 -2.578125q5.125 0 7.6875 2.328125q2.578125 2.3125 2.578125 5.46875q0 2.96875 -2.171875 5.578125q-2.171875 2.609375 -7.703125 4.9375q-5.515625 2.3125 -15.6875 4.390625q-0.09375 1.46875 -0.09375 3.046875q0 5.4375 2.65625 8.6875q2.671875 3.25 7.40625 3.25q5.828125 0 12.234375 -6.40625l0.296875 0l1.28125 1.28125q-3.359375 5.8125 -8.484375 10.015625q-5.125 4.1875 -11.25 4.1875zm8.1875 -42.90625q-4.140625 0 -7.40625 4.1875q-3.25 4.1875 -4.328125 11.09375q9.078125 -2.171875 12.46875 -4.875q3.40625 -2.71875 3.40625 -6.46875q0 -1.671875 -0.984375 -2.796875q-0.984375 -1.140625 -3.15625 -1.140625zm23.972961 42.421875q-2.75 0 -4.046875 -1.578125q-1.28125 -1.578125 -1.28125 -3.953125q0 -2.859375 1.875 -5.03125q1.875 -2.171875 4.84375 -2.171875q2.765625 0 4.046875 1.53125q1.28125 1.53125 1.28125 4.0q0 2.75 -1.828125 4.984375q-1.828125 2.21875 -4.890625 2.21875z" fill-rule="nonzero"/><path fill="#000000" d="m41.401493 772.1777l0 -1.578125l8.390625 -4.046875l0 -53.859375l-8.390625 -4.046875l0 -1.578125l33.73437 0q10.359375 0 16.328125 4.296875q5.96875 4.28125 5.96875 11.78125q0 5.421875 -3.65625 9.328125q-3.640625 3.890625 -9.5625 6.15625l18.25 28.015625l7.109375 3.953125l0 1.578125l-21.40625 0l-18.25 -30.1875l-5.234375 0l0 24.46875l7.390625 4.140625l0 1.578125l-30.671871 0zm27.218746 -59.6875l-3.9375 0l0 24.671875l4.53125 0q6.125 0 9.671875 -3.453125q3.546875 -3.453125 3.546875 -8.984375q0 -5.828125 -3.5 -9.03125q-3.5 -3.203125 -10.3125 -3.203125zm53.379288 60.1875q-2.953125 0 -5.125 -2.171875q-2.171875 -2.171875 -2.171875 -5.140625q0 -3.046875 2.171875 -5.21875q2.171875 -2.171875 5.125 -2.171875q2.953125 0 5.125 2.171875q2.171875 2.171875 2.171875 5.21875q0 2.96875 -2.171875 5.140625q-2.171875 2.171875 -5.125 2.171875zm64.424194 -0.5l0 -1.578125l6.015625 -3.359375l25.75 -60.671875l8.6875 0l25.453125 60.484375l6.7031097 3.546875l0 1.578125l-31.17186 0l0 -1.578125l8.578125 -3.546875l-6.703125 -16.375l-23.390625 0l-6.703125 16.375l8.1875 3.546875l0 1.578125l-21.40625 0zm22.203125 -26.9375l18.84375 0l-9.375 -22.984375l-9.46875 22.984375zm55.344254 26.9375l0 -1.578125l6.609375 -3.15625l0 -30.0l-6.3125 -4.03125l0 -1.1875l17.953125 -6.015625l1.1875 0l0.875 7.296875l0.5 0q3.453125 -3.453125 6.703125 -5.375q3.265625 -1.921875 7.796875 -1.921875q4.84375 0 8.296875 2.078125q3.453125 2.0625 4.53125 6.203125l0.390625 0q3.75 -3.953125 7.15625 -6.109375q3.40625 -2.171875 8.234375 -2.171875q5.828125 0 9.578125 3.0625q3.75 3.046875 3.75 9.0625l0 29.109375l6.5 3.15625l0 1.578125l-25.453125 0l0 -1.578125l5.03125 -3.15625l0 -25.0625q0 -3.453125 -1.921875 -5.265625q-1.921875 -1.828125 -4.984375 -1.828125q-2.171875 0 -4.25 0.796875q-2.0625 0.78125 -3.53125 2.25l0 0l0 29.109375l4.921875 3.15625l0 1.578125l-23.671875 0l0 -1.578125l4.828125 -3.15625l0 -25.0625q0 -3.453125 -1.921875 -5.265625q-1.921875 -1.828125 -4.984375 -1.828125q-1.765625 0 -3.84375 0.6875q-2.078125 0.6875 -3.546875 1.875l0 29.59375l4.734375 3.15625l0 1.578125l-25.15625 0zm111.48297 0.984375q-10.171875 0 -16.046875 -5.859375q-5.859375 -5.875 -5.859375 -15.546875q0 -7.5 3.25 -13.265625q3.265625 -5.78125 8.78125 -9.03125q5.53125 -3.25 12.328125 -3.25q8.0 0 12.4375 5.328125q4.4375 5.328125 4.53125 15.09375l-0.390625 0.484375l-27.625 0l0 0.5q0 4.140625 1.578125 7.546875q1.578125 3.40625 4.984375 5.375q3.40625 1.96875 8.828125 1.96875q2.859375 0 5.96875 -0.6875q3.109375 -0.6875 6.46875 -2.375l0.296875 0l0 1.59375q-2.46875 5.21875 -7.546875 8.671875q-5.078125 3.453125 -11.984375 3.453125zm0.1875 -42.515625q-3.453125 0 -5.671875 3.15625q-2.21875 3.15625 -2.8125 8.875l16.671875 0q-0.6875 -6.8125 -2.8125 -9.421875q-2.109375 -2.609375 -5.375 -2.609375zm26.152222 41.53125l0 -1.578125l6.609375 -3.15625l0 -30.0l-6.3125 -4.03125l0 -1.1875l17.953125 -6.015625l1.1875 0l0.875 7.296875l0.5 0q3.546875 -3.453125 6.90625 -5.375q3.359375 -1.921875 7.890625 -1.921875q6.015625 0 9.8125 3.0625q3.796875 3.046875 3.796875 9.0625l0 29.109375l6.609375 3.15625l0 1.578125l-25.453125 0l0 -1.578125l4.9375 -3.15625l0 -25.0625q0 -3.453125 -2.03125 -5.265625q-2.015625 -1.828125 -5.0625 -1.828125q-1.875 0 -4.109375 0.6875q-2.21875 0.6875 -3.6875 1.96875l0 29.5l5.03125 3.15625l0 1.578125l-25.453125 0z" fill-rule="nonzero"/></g></g></svg>